<?xml version="1.0" standalone="no"?>
<!DOCTYPE svg PUBLIC "-//W3C//DTD SVG 20010904//EN"
 "http://www.w3.org/TR/2001/REC-SVG-20010904/DTD/svg10.dtd">
<svg version="1.0" xmlns="http://www.w3.org/2000/svg"
 width="16.000000pt" height="16.000000pt" viewBox="0 0 16.000000 16.000000"
 preserveAspectRatio="xMidYMid meet">
<metadata>
Created by potrace 1.11, written by Peter Selinger 2001-2013
</metadata>
<g transform="translate(0.000000,16.000000) scale(0.002000,-0.002000)"
fill="#000000" stroke="none">
<path d="M3779 7596 c-2 -2 -44 -6 -94 -10 -49 -4 -105 -8 -123 -11 -95 -12
-191 -26 -209 -29 -11 -3 -36 -7 -54 -10 -67 -11 -95 -17 -174 -37 -44 -12
-87 -22 -95 -24 -25 -5 -132 -36 -190 -55 -391 -130 -741 -321 -1068 -583
-116 -93 -360 -326 -457 -437 -199 -226 -346 -431 -481 -670 -52 -92 -116
-215 -119 -230 0 -3 -6 -14 -12 -25 -22 -39 -111 -270 -142 -370 -31 -95 -78
-273 -87 -325 -3 -14 -11 -56 -19 -95 -7 -38 -17 -97 -21 -130 -3 -33 -8 -63
-10 -66 -25 -42 -24 -803 1 -899 2 -8 7 -44 10 -80 3 -36 8 -72 10 -80 2 -8 7
-35 10 -59 5 -37 18 -99 50 -242 112 -510 397 -1065 753 -1467 139 -158 371
-380 481 -462 19 -14 39 -30 45 -35 55 -52 258 -192 401 -277 419 -248 850
-391 1390 -463 196 -26 710 -26 855 -1 14 3 57 9 95 15 99 15 154 26 250 47
181 40 463 128 592 185 23 11 46 19 50 19 4 0 40 16 78 35 39 19 73 35 77 35
12 0 228 119 323 178 119 74 324 220 355 252 3 3 19 16 35 29 91 69 263 235
382 368 37 41 73 81 78 87 156 171 364 484 477 716 57 118 179 411 183 440 0
3 3 10 7 15 3 6 13 35 21 65 9 30 25 89 37 130 12 41 23 82 25 90 1 8 8 33 14
55 5 22 13 54 15 70 3 17 8 39 10 50 2 11 7 40 11 65 4 25 9 54 11 65 2 11 7
40 10 65 3 25 8 54 10 64 26 135 25 788 -1 869 -2 7 -6 35 -9 62 -3 28 -8 61
-10 75 -3 14 -12 66 -20 115 -9 50 -22 115 -31 147 -8 31 -17 67 -19 80 -43
200 -171 537 -297 777 -162 307 -420 648 -666 880 -167 158 -168 158 -332 290
-117 95 -360 255 -486 322 -270 142 -568 261 -794 315 -62 14 -264 55 -301 60
-25 3 -52 7 -60 9 -8 2 -46 6 -85 10 -38 4 -79 10 -90 12 -23 6 -590 14 -596
9z m954 -1891 c55 -11 138 -47 196 -86 118 -79 267 -271 340 -439 18 -41 41
-93 51 -115 48 -105 139 -433 170 -610 5 -27 16 -89 24 -137 9 -48 18 -113 22
-145 3 -31 7 -59 9 -62 6 -10 19 -155 18 -201 -2 -153 -169 -255 -563 -347
-58 -13 -116 -26 -130 -29 -14 -2 -35 -6 -47 -9 -12 -3 -39 -7 -60 -10 -21 -3
-49 -7 -62 -10 -13 -2 -49 -7 -80 -11 -31 -3 -65 -8 -75 -10 -11 -2 -56 -6
-100 -10 -45 -3 -92 -7 -105 -9 -45 -8 -286 -18 -396 -18 -109 0 -249 8 -335
18 -64 8 -330 45 -362 50 -16 3 -43 7 -60 10 -273 44 -525 123 -647 203 -30
20 -66 56 -83 81 -27 43 -28 51 -23 116 3 39 8 81 10 95 2 14 6 54 9 90 4 36
8 75 10 85 4 19 13 83 22 155 2 19 6 42 9 50 2 8 7 31 10 50 53 313 203 721
346 939 94 143 234 252 379 296 66 20 225 27 295 14 106 -20 118 -23 210 -54
108 -36 221 -52 309 -44 97 10 106 12 233 54 62 20 145 43 185 50 68 13 208
12 271 0z m-2666 -1690 c59 -29 102 -75 138 -145 42 -82 149 -185 280 -268
133 -83 475 -193 740 -236 11 -2 49 -9 85 -15 36 -5 85 -13 110 -15 25 -3 65
-8 90 -11 103 -12 131 -14 255 -21 210 -12 482 -7 635 11 14 2 54 6 90 10 57
6 271 38 325 49 281 56 433 101 581 170 81 38 180 96 221 129 71 57 124 114
168 182 64 98 103 137 161 166 86 41 224 18 293 -50 85 -85 104 -128 103 -242
-1 -122 -61 -235 -203 -381 -164 -168 -353 -293 -589 -388 -30 -12 -64 -26
-75 -31 -113 -49 -459 -139 -630 -163 -23 -4 -50 -8 -60 -10 -11 -2 -45 -7
-75 -10 -30 -4 -72 -9 -94 -12 -21 -3 -59 -7 -85 -9 -25 -2 -75 -6 -111 -9
-186 -17 -525 -22 -690 -11 -148 9 -284 21 -345 29 -22 3 -64 8 -93 12 -29 3
-63 7 -75 10 -11 2 -37 6 -57 9 -20 3 -47 7 -60 10 -14 3 -52 10 -85 16 -33 6
-96 19 -140 31 -44 11 -87 21 -95 23 -40 9 -195 61 -282 96 -187 74 -353 161
-450 236 -65 49 -225 206 -279 273 -96 118 -134 259 -101 374 52 182 236 270
399 191z"/>
</g>
</svg>
